<svg width="260" height="200" viewBox="0 0 260 200" fill="none" xmlns="http://www.w3.org/2000/svg">
<path d="M145.667 78.4579C151.616 78.4579 156.438 73.6352 156.438 67.6869C156.438 61.7387 151.616 56.916 145.667 56.916C145.657 56.916 145.648 56.9174 145.638 56.9174C121.858 56.9329 102.584 76.2151 102.584 99.9997C102.584 123.794 121.873 143.083 145.667 143.083C151.616 143.083 156.438 138.26 156.438 132.312C156.438 126.364 151.616 121.541 145.667 121.541L145.657 121.542C133.765 121.536 124.125 111.893 124.125 99.9997C124.125 88.1025 133.77 78.4579 145.667 78.4579Z" fill="#0DC167"/>
</svg>
